<svg width="165" height="24" viewBox="0 0 165 24" fill="none" xmlns="http://www.w3.org/2000/svg">
<path d="M148.562 18.7263L152.5 16.3263L156.438 18.7579L155.406 14.2105L158.875 11.1789L154.312 10.7684L152.5 6.47368L150.688 10.7368L146.125 11.1474L149.594 14.2105L148.562 18.7263ZM144.781 24L146.812 15.1263L140 9.15789L149 8.36842L152.5 0L156 8.36842L165 9.15789L158.188 15.1263L160.219 24L152.5 19.2947L144.781 24Z" fill="#383838"/>
<path d="M12.5 19.2884L20.225 24L18.175 15.12L25 9.14526L16.0125 8.37474L12.5 0L8.9875 8.37474L0 9.14526L6.825 15.12L4.775 24L12.5 19.2884Z" fill="#383838"/>
<path d="M47.5 19.2884L55.225 24L53.175 15.12L60 9.14526L51.0125 8.37474L47.5 0L43.9875 8.37474L35 9.14526L41.825 15.12L39.775 24L47.5 19.2884Z" fill="#383838"/>
<path d="M82.5 19.2884L90.225 24L88.175 15.12L95 9.14526L86.0125 8.37474L82.5 0L78.9875 8.37474L70 9.14526L76.825 15.12L74.775 24L82.5 19.2884Z" fill="#383838"/>
<path d="M117.5 19.2884L125.225 24L123.175 15.12L130 9.14526L121.013 8.37474L117.5 0L113.987 8.37474L105 9.14526L111.825 15.12L109.775 24L117.5 19.2884Z" fill="#383838"/>
</svg>
